<svg xmlns="http://www.w3.org/2000/svg" xmlns:xlink="http://www.w3.org/1999/xlink" version="1.1" width="256" height="256" viewBox="0 0 256 256" xml:space="preserve">

<defs>
</defs>
<g style="stroke: none; stroke-width: 0; stroke-dasharray: none; stroke-linecap: butt; stroke-linejoin: miter; stroke-miterlimit: 10; fill: none; fill-rule: nonzero; opacity: 1;" transform="translate(1.4065934065934016 1.4065934065934016) scale(2.81 2.81)" >
	<path d="M 66.299 22.307 H 23.702 v -1.997 C 23.702 9.111 32.813 0 44.012 0 h 1.976 c 11.2 0 20.311 9.111 20.311 20.311 V 22.307 z M 25.702 20.307 h 38.597 C 64.297 10.212 56.083 2 45.988 2 h -1.976 C 33.917 2 25.704 10.212 25.702 20.307 z" style="stroke: none; stroke-width: 1; stroke-dasharray: none; stroke-linecap: butt; stroke-linejoin: miter; stroke-miterlimit: 10; fill: rgb(0,0,0); fill-rule: nonzero; opacity: 1;" transform=" matrix(1 0 0 1 0 0) " stroke-linecap="round" />
	<path d="M 22.018 89 h -4.597 c -6.84 0 -12.385 -5.545 -12.385 -12.385 V 21.307 h 16.982 V 89 z" style="stroke: none; stroke-width: 1; stroke-dasharray: none; stroke-linecap: butt; stroke-linejoin: miter; stroke-miterlimit: 10; fill: rgb(229,50,56); fill-rule: nonzero; opacity: 1;" transform=" matrix(1 0 0 1 0 0) " stroke-linecap="round" />
	<rect x="22.02" y="21.31" rx="0" ry="0" width="22.98" height="67.69" style="stroke: none; stroke-width: 1; stroke-dasharray: none; stroke-linecap: butt; stroke-linejoin: miter; stroke-miterlimit: 10; fill: rgb(0,100,210); fill-rule: nonzero; opacity: 1;" transform=" matrix(1 0 0 1 0 0) "/>
	<rect x="45" y="21.31" rx="0" ry="0" width="22.98" height="67.69" style="stroke: none; stroke-width: 1; stroke-dasharray: none; stroke-linecap: butt; stroke-linejoin: miter; stroke-miterlimit: 10; fill: rgb(245,175,2); fill-rule: nonzero; opacity: 1;" transform=" matrix(1 0 0 1 0 0) "/>
	<path d="M 72.579 89 h -4.597 V 21.307 h 16.982 v 55.308 C 84.964 83.455 79.419 89 72.579 89 z" style="stroke: none; stroke-width: 1; stroke-dasharray: none; stroke-linecap: butt; stroke-linejoin: miter; stroke-miterlimit: 10; fill: rgb(134,184,23); fill-rule: nonzero; opacity: 1;" transform=" matrix(1 0 0 1 0 0) " stroke-linecap="round" />
	<path d="M 22.018 90 H 17.42 c -7.38 0 -13.384 -6.004 -13.384 -13.385 V 21.307 c 0 -0.552 0.448 -1 1 -1 h 16.982 c 0.552 0 1 0.448 1 1 V 89 C 23.018 89.553 22.57 90 22.018 90 z M 6.036 22.307 v 54.308 C 6.036 82.893 11.143 88 17.42 88 h 3.598 V 22.307 H 6.036 z" style="stroke: none; stroke-width: 1; stroke-dasharray: none; stroke-linecap: butt; stroke-linejoin: miter; stroke-miterlimit: 10; fill: rgb(0,0,0); fill-rule: nonzero; opacity: 1;" transform=" matrix(1 0 0 1 0 0) " stroke-linecap="round" />
	<path d="M 45 90 H 22.018 c -0.552 0 -1 -0.447 -1 -1 V 21.307 c 0 -0.552 0.448 -1 1 -1 H 45 c 0.552 0 1 0.448 1 1 V 89 C 46 89.553 45.552 90 45 90 z M 23.018 88 H 44 V 22.307 H 23.018 V 88 z" style="stroke: none; stroke-width: 1; stroke-dasharray: none; stroke-linecap: butt; stroke-linejoin: miter; stroke-miterlimit: 10; fill: rgb(0,0,0); fill-rule: nonzero; opacity: 1;" transform=" matrix(1 0 0 1 0 0) " stroke-linecap="round" />
	<path d="M 67.982 90 H 45 c -0.552 0 -1 -0.447 -1 -1 V 21.307 c 0 -0.552 0.448 -1 1 -1 h 22.982 c 0.553 0 1 0.448 1 1 V 89 C 68.982 89.553 68.535 90 67.982 90 z M 46 88 h 20.982 V 22.307 H 46 V 88 z" style="stroke: none; stroke-width: 1; stroke-dasharray: none; stroke-linecap: butt; stroke-linejoin: miter; stroke-miterlimit: 10; fill: rgb(0,0,0); fill-rule: nonzero; opacity: 1;" transform=" matrix(1 0 0 1 0 0) " stroke-linecap="round" />
	<path d="M 72.579 90 h -4.597 c -0.553 0 -1 -0.447 -1 -1 V 21.307 c 0 -0.552 0.447 -1 1 -1 h 16.981 c 0.553 0 1 0.448 1 1 v 55.308 C 85.964 83.996 79.96 90 72.579 90 z M 68.982 88 h 3.597 c 6.277 0 11.385 -5.107 11.385 -11.385 V 22.307 H 68.982 V 88 z" style="stroke: none; stroke-width: 1; stroke-dasharray: none; stroke-linecap: butt; stroke-linejoin: miter; stroke-miterlimit: 10; fill: rgb(0,0,0); fill-rule: nonzero; opacity: 1;" transform=" matrix(1 0 0 1 0 0) " stroke-linecap="round" />
</g>
</svg>